<mxfile host="app.diagrams.net" modified="2023-08-16T11:07:35.217Z" agent="Mozilla/5.0 (Windows NT 10.0; Win64; x64) AppleWebKit/537.36 (KHTML, like Gecko) Chrome/115.0.0.0 Safari/537.36" version="21.2.1" etag="nf8l4oI0MRr9Z73Ywoj-" type="github">
  <diagram name="第 1 页" id="S3i-THxdchN9te1JODTu">
    <mxGraphModel>
      <root>
        <mxCell id="0" />
        <mxCell id="1" parent="0" />
      </root>
    </mxGraphModel>
  </diagram>
</mxfile>
